<svg width="268" height="258" viewBox="0 0 268 258" fill="none" xmlns="http://www.w3.org/2000/svg">
<g filter="url(#filter0_d_1_52)">
<path d="M243 0C254.598 0 264 9.40202 264 21V204C264 215.598 254.598 225 243 225H226.5V209H243C245.761 209 248 206.761 248 204V21C248 18.2386 245.761 16 243 16H58C55.2386 16 53 18.2386 53 21V33H37V21C37 9.58323 46.1105 0.294312 57.458 0.00683594L58 0H243Z" fill="#7EC48A"/>
</g>
<path d="M202 33C215.807 33 227 44.1929 227 58V233C227 246.807 215.807 258 202 258H25C11.1929 258 1.00672e-07 246.807 0 233V58C0 44.1929 11.1929 33 25 33H202ZM137.918 117.655L80.5957 177.821L56.8145 158.611L56.4531 158.319L56.1348 158.658L19.1348 198.158L18.7812 198.536L19.1709 198.876L27.1709 205.876L27.5352 206.194L27.8652 205.842L56.5596 175.168L80.3408 192.9L80.6963 193.166L81.002 192.845L138.322 132.679L198.185 181.388L198.626 181.747L198.925 181.263L204.425 172.367L204.655 171.996L204.317 171.719L138.598 117.614L138.238 117.318L137.918 117.655ZM61.5 67C47.969 67 37 77.969 37 91.5C37 105.031 47.969 116 61.5 116C75.031 116 86 105.031 86 91.5C86 77.969 75.031 67 61.5 67Z" fill="#7EC48A"/>
<defs>
<filter id="filter0_d_1_52" x="33" y="0" width="235" height="233" filterUnits="userSpaceOnUse" color-interpolation-filters="sRGB">
<feFlood flood-opacity="0" result="BackgroundImageFix"/>
<feColorMatrix in="SourceAlpha" type="matrix" values="0 0 0 0 0 0 0 0 0 0 0 0 0 0 0 0 0 0 127 0" result="hardAlpha"/>
<feOffset dy="4"/>
<feGaussianBlur stdDeviation="2"/>
<feComposite in2="hardAlpha" operator="out"/>
<feColorMatrix type="matrix" values="0 0 0 0 0 0 0 0 0 0 0 0 0 0 0 0 0 0 0.25 0"/>
<feBlend mode="normal" in2="BackgroundImageFix" result="effect1_dropShadow_1_52"/>
<feBlend mode="normal" in="SourceGraphic" in2="effect1_dropShadow_1_52" result="shape"/>
</filter>
</defs>
</svg>
